<?xml version="1.0" encoding="UTF-8"?>
<svg xmlns="http://www.w3.org/2000/svg" xmlns:xlink="http://www.w3.org/1999/xlink" width="600pt" height="600pt" viewBox="0 0 600 600" version="1.1">
<g id="surface219">
<rect x="0" y="0" width="600" height="600" style="fill:rgb(100%,100%,100%);fill-opacity:1;stroke:none;"/>
<path style=" stroke:none;fill-rule:nonzero;fill:rgb(25.098039%,32.54902%,84.705882%);fill-opacity:1;" d="M 245 380 C 245 393.808594 233.808594 405 220 405 C 206.191406 405 195 393.808594 195 380 C 195 366.191406 206.191406 355 220 355 C 233.808594 355 245 366.191406 245 380 "/>
<path style=" stroke:none;fill-rule:nonzero;fill:rgb(25.098039%,32.54902%,84.705882%);fill-opacity:1;" d="M 175 330 C 175 341.046875 166.046875 350 155 350 C 143.953125 350 135 341.046875 135 330 C 135 318.953125 143.953125 310 155 310 C 166.046875 310 175 318.953125 175 330 "/>
<path style=" stroke:none;fill-rule:nonzero;fill:rgb(25.098039%,32.54902%,84.705882%);fill-opacity:1;" d="M 265 305 C 265 324.328125 249.328125 340 230 340 C 210.671875 340 195 324.328125 195 305 C 195 285.671875 210.671875 270 230 270 C 249.328125 270 265 285.671875 265 305 "/>
<path style=" stroke:none;fill-rule:nonzero;fill:rgb(79.607843%,23.529412%,20%);fill-opacity:1;" d="M 355 180 C 355 193.808594 343.808594 205 330 205 C 316.191406 205 305 193.808594 305 180 C 305 166.191406 316.191406 155 330 155 C 343.808594 155 355 166.191406 355 180 "/>
<path style=" stroke:none;fill-rule:nonzero;fill:rgb(79.607843%,23.529412%,20%);fill-opacity:1;" d="M 415 130 C 415 149.328125 399.328125 165 380 165 C 360.671875 165 345 149.328125 345 130 C 345 110.671875 360.671875 95 380 95 C 399.328125 95 415 110.671875 415 130 "/>
<path style=" stroke:none;fill-rule:nonzero;fill:rgb(21.960784%,59.607843%,14.901961%);fill-opacity:1;" d="M 505 380 C 505 393.808594 493.808594 405 480 405 C 466.191406 405 455 393.808594 455 380 C 455 366.191406 466.191406 355 480 355 C 493.808594 355 505 366.191406 505 380 "/>
<path style=" stroke:none;fill-rule:nonzero;fill:rgb(21.960784%,59.607843%,14.901961%);fill-opacity:1;" d="M 455 330 C 455 349.328125 439.328125 365 420 365 C 400.671875 365 385 349.328125 385 330 C 385 310.671875 400.671875 295 420 295 C 439.328125 295 455 310.671875 455 330 "/>
<path style=" stroke:none;fill-rule:nonzero;fill:rgb(21.960784%,59.607843%,14.901961%);fill-opacity:1;" d="M 470 240 C 470 259.328125 454.328125 275 435 275 C 415.671875 275 400 259.328125 400 240 C 400 220.671875 415.671875 205 435 205 C 454.328125 205 470 220.671875 470 240 "/>
<path style=" stroke:none;fill-rule:nonzero;fill:rgb(58.431373%,34.509804%,69.803922%);fill-opacity:1;" d="M 355 280 C 355 299.328125 339.328125 315 320 315 C 300.671875 315 285 299.328125 285 280 C 285 260.671875 300.671875 245 320 245 C 339.328125 245 355 260.671875 355 280 "/>
<path style=" stroke:none;fill-rule:nonzero;fill:rgb(58.431373%,34.509804%,69.803922%);fill-opacity:1;" d="M 255 230 C 255 243.808594 243.808594 255 230 255 C 216.191406 255 205 243.808594 205 230 C 205 216.191406 216.191406 205 230 205 C 243.808594 205 255 216.191406 255 230 "/>
</g>
</svg>
